HIERARCHY
ROOT root
{
	OFFSET	0	13.1	24.9
	CHANNELS 6  Xposition Yposition Zposition Xrotation Yrotation Zrotation
	JOINT spine_1
	{
		OFFSET	0	9.99999	0
		CHANNELS 3  Xrotation Yrotation Zrotation
		JOINT spine_2
		{
			OFFSET	0	112	-10
			CHANNELS 3  Xrotation Yrotation Zrotation
			JOINT spine_3
			{
				OFFSET	0	206.5	19.3
				CHANNELS 3  Xrotation Yrotation Zrotation
				JOINT spine_4
				{
					OFFSET	0	110.4	14.6
					CHANNELS 3  Xrotation Yrotation Zrotation
					JOINT neck_1
					{
						OFFSET	0	71.8	-50.3
						CHANNELS 3  Xrotation Yrotation Zrotation
						JOINT neck_2
						{
							OFFSET	0	86.2	-25.8
							CHANNELS 3  Xrotation Yrotation Zrotation
							JOINT head_ee
							{
								OFFSET	0	179.8	-8.7
								CHANNELS 3  Xrotation Yrotation Zrotation
								End Site
								{
									OFFSET	1	0	0
								}
							}
						}
					}
					JOINT left_clavicle
					{
						OFFSET	-43.2	22.4	-70.8
						CHANNELS 3  Xrotation Yrotation Zrotation
						JOINT left_shoulder
						{
							OFFSET	-93.9	-5.79999	48.7
							CHANNELS 3  Xrotation Yrotation Zrotation
							JOINT left_elbow
							{
								OFFSET	-291.4	-30.8	15.2
								CHANNELS 3  Xrotation Yrotation Zrotation
								JOINT left_lowarm_twist
								{
									OFFSET	-110.7	-3.89999	13.6
									CHANNELS 3  Xrotation Yrotation Zrotation
									JOINT left_hand
									{
										OFFSET	-110.7	-3.89999	13.6
										CHANNELS 3  Xrotation Yrotation Zrotation
										JOINT left_ee
										{
											OFFSET	-80.8	-5.10001	12.1
											CHANNELS 3  Xrotation Yrotation Zrotation
											End Site
											{
												OFFSET	1	0	0
											}
										}
									}
								}
							}
						}
					}
					JOINT right_clavicle
					{
						OFFSET	43.2	22.4	-70.8
						CHANNELS 3  Xrotation Yrotation Zrotation
						JOINT right_shoulder
						{
							OFFSET	93.9	-5.79999	48.7
							CHANNELS 3  Xrotation Yrotation Zrotation
							JOINT right_elbow
							{
								OFFSET	291.4	-30.8	15.2
								CHANNELS 3  Xrotation Yrotation Zrotation
								JOINT right_lowarm_twist
								{
									OFFSET	110.7	-3.89999	13.6
									CHANNELS 3  Xrotation Yrotation Zrotation
									JOINT right_hand
									{
										OFFSET	110.7	-3.89999	13.6
										CHANNELS 3  Xrotation Yrotation Zrotation
										JOINT right_ee
										{
											OFFSET	80.8	-5.10001	12.1
											CHANNELS 3  Xrotation Yrotation Zrotation
											End Site
											{
												OFFSET	1	0	0
											}
										}
									}
								}
							}
						}
					}
				}
			}
		}
	}
	JOINT left_hip
	{
		OFFSET	-82.8	-127.5	0.300001
		CHANNELS 3  Xrotation Yrotation Zrotation
		JOINT left_knee
		{
			OFFSET	-28.2	-396.7	2.2
			CHANNELS 3  Xrotation Yrotation Zrotation
			JOINT left_ankle
			{
				OFFSET	-11.7	-411.3	35.4
				CHANNELS 3  Xrotation Yrotation Zrotation
				JOINT left_toes
				{
					OFFSET	0	-60	-88.6
					CHANNELS 3  Xrotation Yrotation Zrotation
					JOINT left_foot_ee
					{
						OFFSET	-22.5	-16.5	-42.2
						CHANNELS 3  Xrotation Yrotation Zrotation
						End Site
						{
							OFFSET	1	0	0
						}
					}
				}
			}
		}
	}
	JOINT right_hip
	{
		OFFSET	82.8	-127.5	0.300001
		CHANNELS 3  Xrotation Yrotation Zrotation
		JOINT right_knee
		{
			OFFSET	28.2	-396.7	2.2
			CHANNELS 3  Xrotation Yrotation Zrotation
			JOINT right_ankle
			{
				OFFSET	11.7	-411.3	35.4
				CHANNELS 3  Xrotation Yrotation Zrotation
				JOINT right_toes
				{
					OFFSET	0	-60	-88.6
					CHANNELS 3  Xrotation Yrotation Zrotation
					JOINT right_foot_ee
					{
						OFFSET	22.5	-16.5	-42.2
						CHANNELS 3  Xrotation Yrotation Zrotation
						End Site
						{
							OFFSET	1	0	0
						}
					}
				}
			}
		}
	}
}
MOTION
Frames: 5
Frame Time: 0.02
2116.6 710.458 -1560.07 4.52448 64.8936 -11.0925 -0.435818 0.841251 4.10722 -0.426621 0.578424 4.15232 -0.378244 -0.334879 4.17897 -0.402457 0.328722 4.17946 -6.58305 13.0647 -2.79832 -6.50619 26.2617 -0.22339 -0.0 0.0 -0.0 -4.65094 23.8603 -3.57735 0.049401 -17.8972 65.9669 2.07215 -45.7433 0.874182 -52.4329 -4.3595 4.80406 -1.07867 1.64447 -6.49164 -0.0 0.0 -0.0 13.1206 23.2608 -26.2513 -7.95315 20.8696 -68.6971 0.654707 17.9691 -0.103516 -3.84771 0.15136 -0.467863 -0.0433318 10.939 4.94641 0.0 0.0 0.0 2.36038 14.6347 2.20013 -26.4793 0.162735 4.02424 41.7401 16.3728 -5.10902 -33.8399 0.0 0.0 -0.0 0.0 -0.0 -3.78058 14.2427 5.52046 -15.476 -0.32208 -2.34591 39.8056 13.9573 5.11574 -16.8748 0.0 0.0 0.0 0.0 0.0 
2107.26 708.679 -1555.14 5.01873 63.4767 -11.6773 -0.610107 1.01921 4.05748 -0.60127 0.75918 4.11397 -0.539626 -0.161412 4.18021 -0.563656 0.500218 4.15336 -5.62516 13.0811 -3.24493 -5.45508 26.5411 -0.908088 -0.0 0.0 -0.0 -4.76604 24.2746 -3.63104 -4.62442 -15.407 66.3136 2.31588 -48.9152 1.05345 -52.3562 -4.35035 4.80043 -1.17721 0.764889 -7.54469 -0.0 0.0 -0.0 13.1629 24.7192 -26.1994 -6.80093 22.5248 -68.6332 0.812937 21.9348 -0.157542 -3.77005 0.147995 -0.458523 -0.238791 10.1256 5.9237 0.0 0.0 0.0 5.29313 14.734 1.61563 -31.9166 -0.0341028 4.83516 40.8814 19.4965 -5.09739 -32.4537 0.0 0.0 -0.0 0.0 -0.0 -4.51534 12.059 6.66162 -13.9412 -0.318604 -2.11047 39.2159 17.9119 5.19813 -14.6233 0.0 0.0 0.0 0.0 0.0 
2099.5 705.856 -1552.61 5.01562 62.911 -11.6662 -0.764246 1.13761 4.05264 -0.755538 0.877653 4.11666 -0.684719 -0.0567706 4.20864 -0.708914 0.608032 4.16495 -5.22862 12.895 -3.8555 -5.00517 26.6164 -1.66562 -0.0 0.0 -0.0 -4.51602 23.905 -3.38076 -8.0663 -13.8365 66.9714 2.37106 -49.5821 1.09526 -52.2836 -4.34169 4.79697 -1.25275 0.202985 -8.30492 -0.0 0.0 -0.0 13.0521 25.5314 -25.8519 -4.96876 23.7417 -68.3406 0.899697 24.0215 -0.191416 -3.57258 0.139496 -0.434751 -0.461761 9.27966 7.07646 0.0 0.0 0.0 8.90536 15.2423 0.386049 -35.9856 -0.231322 5.42813 40.0394 20.113 -5.03482 -31.266 0.0 0.0 -0.0 0.0 -0.0 -5.66136 10.4055 7.76443 -11.9532 -0.304729 -1.80577 39.0538 20.3675 5.28331 -11.866 0.0 0.0 0.0 0.0 0.0 
2091.42 706.361 -1552.5 4.75397 63.3924 -11.8123 -0.76249 1.05758 4.21401 -0.752958 0.787541 4.27262 -0.686108 -0.179618 4.34075 -0.712035 0.507526 4.31477 -5.49399 12.825 -4.31137 -5.27498 26.8404 -2.08025 -0.0 0.0 -0.0 -4.38879 23.7524 -3.24283 -11.0378 -12.4484 67.6795 2.3052 -48.7841 1.04541 -52.2063 -4.33249 4.79329 -1.31875 0.100601 -8.79653 -0.0 0.0 -0.0 13.2276 26.1207 -26.1894 -2.94334 24.837 -68.4389 0.974247 25.7621 -0.222798 -3.46584 0.134935 -0.42189 -0.598395 9.11792 7.93742 0.0 0.0 0.0 12.0368 16.0496 -0.323069 -40.2028 -0.479718 6.02664 39.6502 20.592 -5.01006 -30.7338 0.0 0.0 -0.0 0.0 -0.0 -6.82095 8.88432 8.31238 -11.3083 -0.297958 -1.70705 38.8313 22.1241 5.34242 -9.44332 0.0 0.0 0.0 0.0 0.0 
2079.98 704.7 -1554.82 3.86279 63.4906 -10.8961 -0.54604 1.05011 4.19283 -0.536602 0.781432 4.25101 -0.471202 -0.164564 4.31898 -0.496849 0.518962 4.2909 -5.43501 12.7015 -3.2635 -5.25611 25.8387 -1.04205 -0.0 0.0 -0.0 -4.38145 23.5301 -3.28621 -13.5523 -10.0643 68.6455 2.04437 -45.3569 0.854351 -51.2017 -4.21326 4.74427 -1.46457 1.82005 -9.00129 -0.0 0.0 -0.0 13.4842 26.5265 -26.7349 -0.560154 25.6276 -69.0644 1.0262 26.9458 -0.245862 -3.30357 0.128049 -0.402322 -0.882354 7.50757 9.18164 0.0 0.0 0.0 12.9654 15.3853 -1.16704 -41.3247 -0.553189 6.18272 37.9136 19.6752 -4.82401 -30.3077 0.0 0.0 -0.0 0.0 -0.0 -6.47546 3.84241 8.0866 -10.198 -0.2837 -1.5373 38.7913 22.1698 5.34083 -7.31518 0.0 0.0 0.0 0.0 0.0 
